<!-- icon666.com - MILLIONS vector ICONS FREE --><svg fill="none" viewBox="0 0 24 24" xmlns="http://www.w3.org/2000/svg"><path clip-rule="evenodd" d="m8.04988 2.40679 11.58952 6.09974c2.8142 1.48118 2.8142 5.50617 0 6.98737l-11.59141 6.1007c-3.39007 1.7752-7.086665-1.8239-5.36873-5.2598l1.62-3.24c.34442-.6888.34442-1.5003 0-2.1892l-1.62-3.23997c-1.715251-3.4305 1.97457-7.048943 5.37062-5.25884zm-.69961 1.32685c-2.10381-1.10928-4.39404 1.13183-3.32937 3.26117l1.62 3.23999c.55557 1.1112.55557 2.4197 0 3.5308l-1.62 3.24c-1.06197 2.124 1.22091 4.3646 3.33068 3.2605.00019-.0001-.0002.0001 0 0l11.58922-6.0996c1.7457-.9188 1.7457-3.4138 0-4.33259z" fill="#292d32" fill-rule="evenodd" style="fill: rgb(219, 66, 6);"></path></svg>